<svg xmlns="http://www.w3.org/2000/svg" viewBox="0 0 75 93.75">
  <path fill="#AAA" d="M32.5838 68.4673c-3.3206 1.3583-4.332.154-4.332.154s1.2738-.5594 2.2977-2.0208c.3695-.5275.594-2.1147 1.0502-2.5502 1.7203-1.6421 2.7982-.4293 3.49.4889.692.9181.8146 2.5698-2.506 3.9281zM22.0594 3.1638C26.709 1.1295 31.8501 0 37.2566 0 58.1017 0 75 16.7893 75 37.5S58.1017 75 37.2566 75C18.4805 75 2.9066 61.3781 0 43.5384c3.4034-.5683 6.2443-2.7839 7.6635-5.7933 1.479.807 3.1775 1.2659 4.9839 1.2659 5.7267 0 10.369-4.6125 10.369-10.3022 0-.612-.0537-1.2117-.1567-1.7944 3.3743-1.6996 5.687-5.1788 5.687-9.1946 0-3.1204-1.3963-5.9167-3.602-7.806-.0975-2.6173-1.178-4.9852-2.8853-6.75zM42.17 11.8912c3.3972 1.1534 3.3705 2.7258 3.3705 2.7258s-1.3284-.4135-3.06.0177c-.6248.1557-1.8356 1.2063-2.4656 1.2357-2.3757.1107-2.3934-1.5118-2.3132-2.6587.0802-1.1468 1.0712-2.4738 4.4683-1.3205zm-4.885 20.974c.5147 3.5506-.8985 4.2406-.8985 4.2406s-.2346-1.3713-1.405-2.7183c-.4223-.4861-1.9081-1.088-2.2203-1.636-1.1771-2.0664.2604-2.8189 1.3187-3.268 1.0583-.4493 2.6905-.1687 3.2052 3.3818zM12.358 53.7396c-.2656-3.5777 1.1922-4.1675 1.1922-4.1675s.1384 1.3843 1.212 2.8097c.3874.5144 1.8276 1.2184 2.1008 1.7868 1.0301 2.1436-.4564 2.7939-1.5434 3.1682-1.087.3743-2.6958-.0194-2.9615-3.5972zm22.9318.2532c-1.445 3.2837-3.0091 3.12-3.0091 3.12s.5277-1.2873.249-3.0498c-.1006-.636-1.0417-1.9338-1.016-2.564.0967-2.3762 1.7145-2.2525 2.85-2.0727 1.1356.1799 2.3712 1.2827.9261 4.5665zm19.9337-17.4294c2.019 2.9656 1.0513 4.2053 1.0513 4.2053s-.812-1.1297-2.4544-1.8273c-.5927-.2518-2.192-.1414-2.7128-.497-1.9639-1.3414-1.0017-2.6478-.2474-3.5155.7542-.8677 2.3443-1.331 4.3633 1.6345zM51.3327 59.054c-1.0637-3.4263.2241-4.329.2241-4.329s.4463 1.3178 1.813 2.4652c.4932.414 2.0548.776 2.4489 1.2684 1.486 1.857.1838 2.825-.7912 3.4342s-2.631.5875-3.6948-2.8388zM64.645 24.762c3.1604-1.698 4.2922-.606 4.2922-.606s-1.2084.6895-2.0739 2.25c-.3123.5632-.3697 2.1652-.7779 2.646-1.5392 1.813-2.738.7194-3.522-.1214-.7841-.8408-1.0787-2.4706 2.0816-4.1686z"/>
</svg>
